<svg xmlns="http://www.w3.org/2000/svg" viewBox="0 0 599.41 130.96"><defs><style>.cls-1{fill:#f7931e;}</style></defs><title>Asset 3</title><g id="Layer_2" data-name="Layer 2"><g id="happy_diwali" data-name="happy diwali"><path class="cls-1" d="M38.14,24.27q-2.21,11.18-2.65,15L33.94,52.83H61.24l.2-1.76Q64.61,22.71,72.66,12.5,82.52,0,94.53,0a22,22,0,0,1,8.35,1.56L95.66,8.64A14.46,14.46,0,0,0,87.5,5.86Q79.25,5.86,76,14t-6.4,37l-.74,6.64q-1.37,12.84-1.37,19.87,0,4.15,3.57,4.15a13.92,13.92,0,0,0,6.54-2.25,6.76,6.76,0,0,1,.2,1.22q0,1.46-2.59,2.64l-2.83,1.32L58,91.21q0-9,2.34-30.71l.2-1.76H33.34l-.49,4.44-.63,5.42q-.83,6.93-3,10t-8.31,6l11.51.73L26.56,91,5.42,89.94l6.25-6.05,5.32.59a13.08,13.08,0,0,0,5.32-6.23q1.46-3.74,2.54-13.89l3.79-34.18H27.13Q6.79,30.18,6.79,43.6a17.65,17.65,0,0,0,2.29,8.45l-8,7.62A26.64,26.64,0,0,1,0,52.1Q0,39.5,9.38,31.88t24.91-7.62Z"/><path class="cls-1" d="M114.81,70.56a63,63,0,0,1-12.12,14.87q-6.61,5.79-11.48,5.79-6.68,0-6.68-10.79a37.24,37.24,0,0,1,9.74-25.71Q104,43.85,117.33,43.85A25.92,25.92,0,0,1,126,45.12q-.24.88-.29,1.07l-.59,2.58q-.59,2.68-.63,3.12l-3.12,21.56-.44,3.12a57.11,57.11,0,0,0-.63,6.19q0,2.1,1.22,2.1,4.08,0,8.36-9.13,1.31.78,1.31,1.56,0,1.71-4.2,6.88-5.71,7-10.6,7-3.56,0-3.56-4.79a32.79,32.79,0,0,1,.34-4.05l.49-3.91.64-4.3Zm2.79-19.34a18.24,18.24,0,0,0-9-2.49q-6.84,0-11.48,8.34T92.48,77.74q0,6.34,3.76,6.34,4.35,0,10.5-6.63a38.2,38.2,0,0,0,10.06-21Z"/><path class="cls-1" d="M146.66,90.58l-.43,3.85a44.83,44.83,0,0,1-10.93,25.82Q125.87,131,114.11,131a18.48,18.48,0,0,1-4.69-.59l7.08-7a18.46,18.46,0,0,0,5.27.83q14.54,0,16.79-22.61l5.07-50.63q-2.29,1.71-4.92,4a54.26,54.26,0,0,1-5.65,4.3l.39-3.91a111,111,0,0,0,18.07-14l-2.25,22.63A59.51,59.51,0,0,1,160.91,49q6.46-5.82,11.35-5.82,7,0,7,12a36.52,36.52,0,0,1-9.22,24.85q-9.22,10.53-21.76,10.53Zm.68-7.32a16.46,16.46,0,0,0,8.94,2.49q6.69,0,10.87-7.8t4.18-20.24q0-7.26-4-7.27-4.35,0-10.32,6.63A35.77,35.77,0,0,0,147.87,78Z"/><path class="cls-1" d="M196.41,90.58,196,94.42A44.82,44.82,0,0,1,185,120.24Q175.63,131,163.87,131a18.48,18.48,0,0,1-4.69-.59l7.08-7a18.47,18.47,0,0,0,5.27.83q14.54,0,16.79-22.61l5.07-50.63q-2.29,1.71-4.92,4a54.26,54.26,0,0,1-5.65,4.3l.39-3.91a111,111,0,0,0,18.07-14L199,63.94A59.51,59.51,0,0,1,210.66,49q6.46-5.82,11.35-5.82,7,0,7,12a36.52,36.52,0,0,1-9.22,24.85q-9.22,10.53-21.76,10.53Zm.68-7.32A16.46,16.46,0,0,0,206,85.74q6.69,0,10.87-7.8t4.18-20.24q0-7.26-4-7.27-4.35,0-10.32,6.63A35.77,35.77,0,0,0,197.62,78Z"/><path class="cls-1" d="M271.11,70.51a75.5,75.5,0,0,1-10.33,14.84q-5.4,5.86-8.82,5.86-4.69,0-5.18-9.85l-.34-6.78-.63-13.8-.15-4Q245.21,49,242.77,49q-3.81,0-7.42,7.18a2.41,2.41,0,0,1-1.27-1.9q0-2.64,4.74-6.84t7.73-4.2A4.44,4.44,0,0,1,250.9,46q1.27,2.76,1.66,10.18l.9,17.09Q254,83,256.58,83q3.95,0,9.79-9.06a50.24,50.24,0,0,0,7.5-17.8l1.89-10,8.7-3a85.85,85.85,0,0,0-3.42,13l-6.54,32.75q-3.86,19.23-11.91,28.4Q250.54,131,234.67,131a22.59,22.59,0,0,1-7.47-1.47l6-6.63a23.24,23.24,0,0,0,9.58,2.05q10.16,0,15.24-6.58t8.5-24.13Z"/><path class="cls-1" d="M321.83,88.62l6.78-7.23a38.26,38.26,0,0,0,6.93,1.68,11.35,11.35,0,0,0,4.93-5.59q1.32-3.39,2.44-13.33l4-36.42q-22.08,2.59-22.08,16A18.88,18.88,0,0,0,327,52.09l-7.91,7.43A18,18,0,0,1,318,52.44q0-14.65,11.4-22.39t32.89-7.74q35.45,0,35.45,24.66,0,14.75-10,27.2-13.23,16.46-40.33,16.46A186.19,186.19,0,0,1,321.83,88.62Zm33.09-62L350.85,63.3l-.49,4.59q-.73,6.4-2.73,9.33t-7.86,6.35a145.62,145.62,0,0,0,20,1.48q8.65,0,13.36-2.42t9.21-9.16a36.92,36.92,0,0,0,6.3-21.06q0-25.8-32.09-25.8Z"/><path class="cls-1" d="M425.3,75.73q1.31.78,1.31,1.51,0,1.76-4.25,6.93-5.71,7-10.6,7-3.57,0-3.56-4.73,0-2,1.46-12.29l1.9-13.27.49-3.37.39-2.68A21,21,0,0,0,412.7,52q0-2.44-1.36-2.44-3.79,0-8.17,8.35a2.31,2.31,0,0,1-.92-1.66q0-3,5.49-8t8.76-5q3.66,0,3.66,5.07a40,40,0,0,1-.39,4l-.44,3.27q0,.39-.54,4l-2,13.95-.49,3.12a57,57,0,0,0-.63,6.19q0,2.1,1.22,2.1Q421,84.86,425.3,75.73Zm-9.77-38.82,4.1-10.11a24,24,0,0,0,9-6.2A2.41,2.41,0,0,1,429.1,22Q429.1,28.56,415.53,36.91Z"/><path class="cls-1" d="M442,91.06a137.72,137.72,0,0,0-1.61-21.51l-1.61-10.34q-1.37-8.83-4.69-9.07-3.71-.29-5.18,7.32a1.89,1.89,0,0,1-1.56-2q0-3.71,3.49-8t6.42-4.3q4.3,0,6.76,7.08t4.22,24.32l.29,3a173.84,173.84,0,0,0,12.85-28.81l5.79-5.57q.58,6.59,1.12,10.21l1.17,7.81.83,5.47,2.14,12.5,1.18-1.9q11.31-18.46,11.31-23.68,0-2.83-3-4.83l5.91-5.57q3.61,2,3.61,5.32,0,4-5.57,13.23l-3,4.93-3.66,6.4a70.15,70.15,0,0,0-5.77,12.26l-5.85,5.86q-.69-8.79-2.4-18.51l-.83-4.59-2.1-11.43L460,60.89A165,165,0,0,0,449.5,84.28Z"/><path class="cls-1" d="M524.28,70.56a63,63,0,0,1-12.12,14.87q-6.61,5.79-11.49,5.79-6.68,0-6.68-10.79a37.24,37.24,0,0,1,9.74-25.71q9.74-10.86,23.07-10.86a25.93,25.93,0,0,1,8.64,1.27q-.24.88-.29,1.07l-.59,2.58q-.59,2.68-.63,3.12l-3.12,21.56-.44,3.12a57,57,0,0,0-.63,6.19q0,2.1,1.22,2.1,4.08,0,8.36-9.13,1.31.78,1.31,1.56,0,1.71-4.2,6.88-5.71,7-10.6,7-3.57,0-3.56-4.79a32.71,32.71,0,0,1,.34-4.05l.49-3.91.64-4.3Zm2.79-19.34a18.24,18.24,0,0,0-9-2.49q-6.84,0-11.48,8.34T502,77.74q0,6.34,3.76,6.34,4.35,0,10.5-6.63a38.21,38.21,0,0,0,10.06-21Z"/><path class="cls-1" d="M565.09,75.59q1.41.68,1.41,1.76,0,3.52-5.25,8.69t-8.81,5.18q-4.05,0-4.05-5.86a61.85,61.85,0,0,1,.44-7.28l.54-4.35,3.76-34q1.76-15.53,10.67-25.93t20.53-10.4a20.06,20.06,0,0,1,4.78.49L582.19,11a16.65,16.65,0,0,0-5.36-.78q-7.31,0-10.95,5.15t-5,17.44l-4.53,40.89q-.54,4.73-.54,6.78,0,4.39,1.51,4.39,1.8,0,4.23-2.89A18.68,18.68,0,0,0,565.09,75.59Z"/><path class="cls-1" d="M595.61,75.73q1.31.78,1.31,1.51,0,1.76-4.25,6.93-5.71,7-10.6,7-3.57,0-3.56-4.73,0-2,1.46-12.29l1.9-13.27.49-3.37.39-2.68A21,21,0,0,0,583,52q0-2.44-1.36-2.44-3.79,0-8.17,8.35a2.31,2.31,0,0,1-.92-1.66q0-3,5.49-8t8.76-5q3.66,0,3.66,5.07a40,40,0,0,1-.39,4l-.44,3.27q0,.39-.54,4l-2,13.95-.49,3.12a57,57,0,0,0-.63,6.19q0,2.1,1.22,2.1Q591.28,84.86,595.61,75.73Zm-9.77-38.82,4.1-10.11a24,24,0,0,0,9-6.2,2.41,2.41,0,0,1,.49,1.42Q599.41,28.56,585.84,36.91Z"/></g></g></svg>