<svg xmlns="http://www.w3.org/2000/svg" viewBox="0 0 1098.61 652"><defs><style>.cls-1{fill:#f0f;opacity:0.31;}</style></defs><title>Asset 2</title><g id="Layer_2" data-name="Layer 2"><g id="Mahal"><path class="cls-1" d="M1083.64,387.24l-4.81-158.85s33.7-19.26,0-19.26v-130s28.88-19.26,0-19.26c0,0-24.07-134.79-38.51,0,0,0-38.51,9.63,0,19.26l-4.81,130s-33.7,14.44,0,19.26l-4.81,158.85s-38.51,4.81,0,14.44l-9.63,24.07s-4.81-38.51-9.63,0h-4.81s-4.81-38.51-9.63,0h-4.81s-4.81-38.51-9.63,0h-4.81s-4.81-43.32-9.63,0h-4.81s-4.81-38.51-9.63,0h-4.81s0-43.32-9.63,0h-9.63l4.81-19.26s28.88-72.21-57.77-110.72L862.2,276.53l-4.81-57.77v57.77l-14.44,19.26s-91.46,28.88-62.58,110.72l4.81,19.26h-9.63s-4.81-38.51-9.63,0h-4.81s-4.81-38.51-9.63,0h-4.81s-4.81-38.51-9.63,0h-4.81s-4.81-38.51-9.63,0h-4.81s-4.81-38.51-9.63,0h-4.81s-4.81-38.51-9.63,0h-4.81V281.34l9.63-14.44V238l-19.26-14.44L664.84,238v33.7l4.81,9.63v38.51H640.77V300.59s53-81.83-67.39-144.41L554.12,127.3,549.31,59.9l-4.81,67.39-19.26,28.88c-120.34,62.58-67.39,144.41-67.39,144.41v19.26H429V281.34l4.81-9.63V238l-14.44-14.44L400.08,238V266.9l9.63,14.44V425.75h-4.81c-4.81-38.51-9.63,0-9.63,0h-4.81c-4.81-38.51-9.63,0-9.63,0H376c-4.81-38.51-9.63,0-9.63,0h-4.81c-4.81-38.51-9.63,0-9.63,0h-4.81c-4.81-38.51-9.63,0-9.63,0h-4.81c-4.81-38.51-9.63,0-9.63,0h-9.63l4.81-19.26c28.88-81.83-62.58-110.72-62.58-110.72l-14.44-19.26V218.76l-4.81,57.77L222,295.78C135.32,334.29,164.2,406.5,164.2,406.5L169,425.75h-9.63c-9.63-43.32-9.63,0-9.63,0h-4.81c-4.81-38.51-9.63,0-9.63,0h-4.81c-4.81-43.32-9.63,0-9.63,0h-4.81c-4.81-38.51-9.63,0-9.63,0h-4.81c-4.81-38.51-9.63,0-9.63,0H87.18c-4.81-38.51-9.63,0-9.63,0l-9.63-24.07c38.51-9.63,0-14.44,0-14.44L63.11,228.39c33.7-4.81,0-19.26,0-19.26l-4.81-130c38.51-9.63,0-19.26,0-19.26-14.44-134.79-38.51,0-38.51,0-28.88,0,0,19.26,0,19.26v130c-33.7,0,0,19.26,0,19.26L15,387.24c-33.7-4.81,0,19.26,0,19.26V589.42H10.16V652H1088.45V589.42h-4.81V406.5S1117.33,382.43,1083.64,387.24Z"/></g></g></svg>