<svg xmlns="http://www.w3.org/2000/svg" viewBox="0 0 100.73 100.73"><defs><style>.cls-1{fill:#3fa9f5;stroke-width:1.63px;}.cls-1,.cls-2{stroke:#f50838;stroke-miterlimit:10;}.cls-2{fill:#ff7bac;stroke-width:2.32px;}.cls-3{fill:#f50838;}.cls-4{fill:#0071bc;}.cls-5{fill:#f7931e;}.cls-6{fill:#fbb03b;opacity:0.52;}.cls-7{fill:#f15a24;}</style></defs><title>diya1</title><g id="Layer_2" data-name="Layer 2"><g id="diya1"><circle class="cls-1" cx="50.36" cy="50.36" r="49.55"/><ellipse class="cls-2" cx="49.45" cy="54.65" rx="34.02" ry="6.34"/><path class="cls-3" d="M49.22,51c-12.79,5-34.71,4.11-34.71,4.11,5,32,34.71,30.6,34.71,30.6s29.68,1.37,34.71-30.6C83.93,55.16,62,56.07,49.22,51Z"/><circle class="cls-4" cx="22.45" cy="66.62" r="1.83" transform="translate(-19.57 10.26) rotate(-18.08)"/><circle class="cls-4" cx="30.44" cy="66.28" r="2.73" transform="translate(-19.07 12.72) rotate(-18.08)"/><circle class="cls-4" cx="39.67" cy="64.05" r="3.53" transform="translate(-17.92 15.48) rotate(-18.08)"/><circle class="cls-4" cx="76.53" cy="66.16" r="1.83" transform="translate(-10.12 118.38) rotate(-71.92)"/><circle class="cls-4" cx="68.54" cy="65.83" r="2.73" transform="translate(-15.31 110.55) rotate(-71.92)"/><circle class="cls-4" cx="59.32" cy="63.6" r="3.53" transform="translate(-19.55 100.24) rotate(-71.92)"/><circle class="cls-4" cx="49.44" cy="59.59" r="4.4" transform="translate(-16.06 18.29) rotate(-18.08)"/><path class="cls-5" d="M50.14,51s-15.07-3.65-5-22.83c0,0,5-5.94,1.37-16.9C46.48,11.32,75.25,34.61,50.14,51Z"/><path class="cls-6" d="M50,51s-9.35-3.09-2.22-16c0,0,3.41-3.91,1.56-11.61C49.31,23.41,66.48,40.58,50,51Z"/><path class="cls-7" d="M49.52,51.05s-3-1.73-.17-9c0,0,1.27-2.22.93-6.57C50.28,35.47,55.35,45.14,49.52,51.05Z"/></g></g></svg>