<svg xmlns="http://www.w3.org/2000/svg" xmlns:xlink="http://www.w3.org/1999/xlink" viewBox="0 0 590.89 260.2"><defs><style>.cls-1{opacity:0.8;}.cls-2{fill:url(#New_Gradient_Swatch);}.cls-3{font-size:21px;fill:#f7931e;font-family:Apple-Chancery, Apple Chancery;}.cls-4{letter-spacing:-0.01em;}.cls-5{letter-spacing:-0.01em;}.cls-6{letter-spacing:-0.01em;}.cls-7{letter-spacing:0em;}.cls-8{letter-spacing:-0.01em;}.cls-9{letter-spacing:0em;}.cls-10{letter-spacing:-0.01em;}</style><linearGradient id="New_Gradient_Swatch" y1="130.1" x2="590.89" y2="130.1" gradientUnits="userSpaceOnUse"><stop offset="0" stop-color="#c1272d"/><stop offset="0.05" stop-color="#c32633"/><stop offset="0.13" stop-color="#c72343"/><stop offset="0.21" stop-color="#cf1e5e"/><stop offset="0.29" stop-color="#da1783"/><stop offset="0.38" stop-color="#e90eb3"/><stop offset="0.48" stop-color="#fa03ed"/><stop offset="0.51" stop-color="#f0f"/><stop offset="1" stop-color="#c1272d"/></linearGradient></defs><title>fact8</title><g id="Layer_2" data-name="Layer 2"><g id="fact8"><g class="cls-1"><rect class="cls-2" width="590.89" height="260.2" rx="130.1" ry="130.1"/></g><text class="cls-3" transform="translate(26.31 104.6)">Diyas and lan<tspan class="cls-4" x="126.85" y="0">t</tspan><tspan x="134.13" y="0">erns a</tspan><tspan class="cls-5" x="186.61" y="0">r</tspan><tspan x="195.05" y="0">e lit in and a</tspan><tspan class="cls-5" x="307.69" y="0">r</tspan><tspan x="316.13" y="0">ound houses; fi</tspan><tspan class="cls-6" x="442.99" y="0">r</tspan><tspan class="cls-7" x="451.43" y="0">eworks</tspan><tspan x="0" y="25.2">illumina</tspan><tspan class="cls-4" x="74.6" y="25.2">t</tspan><tspan x="81.88" y="25.2">e the skies, </tspan><tspan class="cls-5" x="176.59" y="25.2">r</tspan><tspan x="185.03" y="25.2">angoli (pat</tspan><tspan class="cls-8" x="279.9" y="25.2">t</tspan><tspan x="287.18" y="25.2">erns c</tspan><tspan class="cls-5" x="336.92" y="25.2">r</tspan><tspan class="cls-7" x="345.36" y="25.2">ea</tspan><tspan class="cls-8" x="363.94" y="25.2">t</tspan><tspan x="371.22" y="25.2">ed on the floor </tspan><tspan x="0" y="50.4">using colou</tspan><tspan class="cls-5" x="96.35" y="50.4">r</tspan><tspan x="104.78" y="50.4">ed rice or powder) deco</tspan><tspan class="cls-6" x="297.97" y="50.4">r</tspan><tspan class="cls-9" x="306.41" y="50.4">a</tspan><tspan class="cls-8" x="317.18" y="50.4">t</tspan><tspan x="324.46" y="50.4">e the homes in celeb</tspan><tspan class="cls-10" x="491.53" y="50.4">r</tspan><tspan class="cls-9" x="499.97" y="50.4">ation.</tspan></text></g></g></svg>