<svg xmlns="http://www.w3.org/2000/svg" viewBox="0 0 1315.71 296"><defs><style>.cls-1,.cls-11,.cls-14,.cls-18,.cls-8{fill:#f7ddbe;}.cls-1,.cls-11,.cls-12,.cls-14,.cls-15,.cls-18,.cls-19,.cls-2{stroke:#0071bc;}.cls-1,.cls-11,.cls-12,.cls-13,.cls-14,.cls-15,.cls-17,.cls-18,.cls-19,.cls-2,.cls-20,.cls-9{stroke-miterlimit:10;}.cls-1{stroke-width:3.11px;}.cls-12,.cls-16,.cls-2{fill:#f7931e;}.cls-2,.cls-9{stroke-width:1.24px;}.cls-3{fill:#5458b3;}.cls-4{fill:#ffce00;}.cls-15,.cls-19,.cls-5{fill:#f0f;}.cls-6{fill:#fbb03b;}.cls-7{fill:#f6dcbd;}.cls-13,.cls-17,.cls-20,.cls-9{fill:none;stroke:#f7931e;}.cls-10{fill:#0071bc;}.cls-11{stroke-width:2.72px;}.cls-12,.cls-13{stroke-width:1.09px;}.cls-14{stroke-width:3.1px;}.cls-15,.cls-17{stroke-width:1.24px;}.cls-18{stroke-width:2.52px;}.cls-19,.cls-20{stroke-width:1.01px;}</style></defs><title>lanterns</title><g id="Layer_2" data-name="Layer 2"><g id="lanterns"><g id="lantern_left" data-name="lantern left"><polygon class="cls-1" points="249.39 104.16 203.43 104.16 180.46 143.96 203.43 183.76 249.39 183.76 272.37 143.96 249.39 104.16"/><path class="cls-2" d="M226.42,143.34l-22.71,38.24-22.49-38.24,22.49-38.24Z"/><path class="cls-3" d="M214.61,124.68,203.71,143l-10.79-18.34,10.79-18.34Z"/><path class="cls-3" d="M214.61,162l-10.89,18.34L192.92,162l10.79-18.34Z"/><path class="cls-2" d="M271.82,144,249.11,182.2,226.62,144l22.49-38.24Z"/><path class="cls-3" d="M260,125.3l-10.89,18.34L238.32,125.3,249.11,107Z"/><path class="cls-3" d="M260,162.61,249.11,181l-10.79-18.34,10.79-18.34Z"/><path class="cls-4" d="M201.16,135.2l.06,4.1,2.49,4.35,2.49-4.35v-4.35l-2.49-28Z"/><path class="cls-4" d="M201.16,151.47l.06-4.1,2.49-4.35,2.49,4.35v4.35l-2.49,28Z"/><path class="cls-5" d="M199.71,144.27l2,0,2.11-1.08-2.12-1.07h-2.11c-4.53.36-12.48.57-17,.93C187.14,143.39,195.14,143.91,199.71,144.27Z"/><path class="cls-5" d="M207.92,144.26l-2,0-2.12-1.07,2.11-1.08H208c4.53.35,11.66.59,16.19.94C219.66,143.4,212.49,143.89,207.92,144.26Z"/><path class="cls-5" d="M245.1,144.89l2,0,2.11-1.08-2.12-1.07H245c-4.53.36-12.48.57-17,.93C232.54,144,240.53,144.53,245.1,144.89Z"/><path class="cls-5" d="M253.31,144.88l-2,0-2.12-1.07,2.11-1.08h2.11c4.53.35,11.66.59,16.19.94C265.06,144,257.89,144.51,253.31,144.88Z"/><path class="cls-6" d="M196.55,293.55,190,296a603.56,603.56,0,0,1,10.24-82.6q.68-3.49,1.4-7h7.91A324.29,324.29,0,0,0,197.94,267C197.07,276.23,196.64,285.11,196.55,293.55Z"/><path class="cls-6" d="M213.77,296l6.87-5.17a204.63,204.63,0,0,1-5.49-31.57c-.64-7-.69-11.78-.69-13.78A120,120,0,0,1,215.83,226a116.82,116.82,0,0,1,4.81-19.52h-6.87q-.74,3.41-1.37,6.89A215.05,215.05,0,0,0,213.77,296Z"/><path class="cls-6" d="M232.94,294.38l-7.37-1.62q-.47-14.89-.61-30.21-.27-28.77.61-56.1h7.37c-.14,2.11-.35,5.3-.61,9.17-.66,9.63-1,12.21-1.21,16.67-.26,5.21-.21,9.29,0,15.83C231.56,266.62,232.65,288.63,232.94,294.38Z"/><path class="cls-6" d="M246,292.89,239.78,291a158.8,158.8,0,0,1-1.24-22.39c.32-20,4.32-29.09,2.49-46.64a96,96,0,0,0-3.11-16.17H246a108.6,108.6,0,0,1,2.49,15.55c1.58,18.36-2.34,27.88-3.11,48.5A181.61,181.61,0,0,0,246,292.89Z"/><path class="cls-4" d="M246.56,135.82l.06,4.1,2.49,4.35,2.49-4.35v-4.35l-2.49-28Z"/><path class="cls-4" d="M246.56,152.1l.06-4.1,2.49-4.35L251.6,148v4.35l-2.49,28Z"/><path class="cls-7" d="M199,292.3l-6.51,2.45a603.56,603.56,0,0,1,10.24-82.6q.68-3.49,1.4-7h7.91a324.29,324.29,0,0,0-11.63,60.52C199.56,275,199.13,283.86,199,292.3Z"/><path class="cls-7" d="M216.26,294.76l6.87-5.17A204.63,204.63,0,0,1,217.63,258c-.64-7-.69-11.78-.69-13.78a120,120,0,0,1,1.37-19.52,116.82,116.82,0,0,1,4.81-19.52h-6.87q-.74,3.41-1.37,6.89A215.05,215.05,0,0,0,216.26,294.76Z"/><path class="cls-7" d="M235.43,293.14l-7.37-1.62q-.47-14.89-.61-30.21-.27-28.77.61-56.1h7.37c-.14,2.11-.35,5.3-.61,9.17-.66,9.63-1,12.21-1.21,16.67-.26,5.21-.21,9.29,0,15.83C234,265.38,235.14,287.39,235.43,293.14Z"/><path class="cls-8" d="M248.49,293.51l-6.22-1.87A158.8,158.8,0,0,1,241,269.26c.32-20,4.32-29.09,2.49-46.64a96,96,0,0,0-3.11-16.17h8.08A108.6,108.6,0,0,1,251,222c1.58,18.36-2.34,27.88-3.11,48.5A181.61,181.61,0,0,0,248.49,293.51Z"/><line class="cls-9" x1="227.03" y1="40.42" x2="227.03"/><polygon class="cls-9" points="226.72 39.8 203.4 81.77 250.04 81.77 226.72 39.8"/><path class="cls-10" d="M201.85,183.45V206h48.5V183.45Zm46.51,19.91H203.84v-2.62h44.52Zm0-4.65H203.84v-2.62h44.52Zm0-4.65H203.84v-2.62h44.52Zm0-4.65H203.84v-2.62h44.52Z"/><path class="cls-10" d="M202.47,81.46v22.59H251V81.46ZM249,101.38H204.46V98.76H249Zm0-4.65H204.46V94.11H249Zm0-4.65H204.46V89.45H249Zm0-4.65H204.46V84.8H249Z"/></g><g id="lantern_left-2" data-name="lantern left"><polygon class="cls-11" points="1294.07 91.98 1253.93 91.98 1233.86 126.74 1253.93 161.51 1294.07 161.51 1314.14 126.74 1294.07 91.98"/><path class="cls-12" d="M1274,126.2l-19.83,33.41-19.65-33.41,19.65-33.41Z"/><path class="cls-3" d="M1263.69,109.91l-9.51,16-9.42-16,9.42-16Z"/><path class="cls-3" d="M1263.69,142.5l-9.51,16-9.42-16,9.42-16Z"/><path class="cls-12" d="M1313.66,126.74l-19.83,33.41-19.65-33.41,19.65-33.41Z"/><path class="cls-3" d="M1303.34,110.45l-9.51,16-9.42-16,9.42-16Z"/><path class="cls-3" d="M1303.34,143l-9.51,16-9.42-16,9.42-16Z"/><path class="cls-4" d="M1251.94,119.09l.06,3.58,2.17,3.8,2.17-3.8v-3.8l-2.17-24.44Z"/><path class="cls-4" d="M1251.94,133.31l.06-3.58,2.17-3.8,2.17,3.8v3.8L1254.17,158Z"/><path class="cls-5" d="M1250.67,127l1.74,0,1.85-.94-1.85-.93h-1.85c-4,.32-10.9.49-14.86.81C1239.7,126.24,1246.68,126.7,1250.67,127Z"/><path class="cls-5" d="M1257.85,127l-1.74,0-1.85-.93,1.85-.94H1258c4,.31,10.19.51,14.14.82C1268.1,126.25,1261.84,126.68,1257.85,127Z"/><path class="cls-5" d="M1290.33,127.56l1.74,0,1.85-.94-1.85-.93h-1.85c-4,.32-10.9.49-14.86.81C1279.35,126.79,1286.33,127.24,1290.33,127.56Z"/><path class="cls-5" d="M1297.5,127.55l-1.74,0-1.85-.93,1.85-.94h1.85c4,.31,10.19.51,14.14.82C1307.75,126.8,1301.49,127.22,1297.5,127.55Z"/><path class="cls-6" d="M1247.91,257.41l-5.69,2.14a527.2,527.2,0,0,1,8.94-72.15q.59-3,1.22-6.07h6.91a283.26,283.26,0,0,0-10.16,52.86C1248.37,242.28,1248,250,1247.91,257.41Z"/><path class="cls-6" d="M1263,259.55l6-4.51a178.74,178.74,0,0,1-4.8-27.58c-.56-6.09-.6-10.29-.6-12a104.8,104.8,0,0,1,1.2-17,102,102,0,0,1,4.2-17h-6q-.64,3-1.2,6A187.84,187.84,0,0,0,1263,259.55Z"/><path class="cls-6" d="M1279.7,258.14l-6.43-1.41q-.41-13-.54-26.39-.24-25.13.54-49h6.43c-.12,1.84-.3,4.63-.54,8-.58,8.42-.87,10.67-1.06,14.56-.22,4.55-.19,8.12,0,13.82C1278.5,233.89,1279.45,253.11,1279.7,258.14Z"/><path class="cls-6" d="M1291.11,256.83l-5.43-1.63a138.71,138.71,0,0,1-1.09-19.55c.28-17.47,3.77-25.41,2.17-40.74a83.9,83.9,0,0,0-2.72-14.12h7.06a94.86,94.86,0,0,1,2.17,13.58c1.38,16-2,24.35-2.72,42.37A158.63,158.63,0,0,0,1291.11,256.83Z"/><path class="cls-4" d="M1291.59,119.64l.06,3.58,2.17,3.8,2.17-3.8v-3.8L1293.82,95Z"/><path class="cls-4" d="M1291.59,133.85l.06-3.58,2.17-3.8,2.17,3.8v3.8l-2.17,24.44Z"/><path class="cls-7" d="M1250.08,256.32l-5.69,2.14a527.2,527.2,0,0,1,8.94-72.15q.59-3,1.22-6.07h6.91a283.26,283.26,0,0,0-10.16,52.86C1250.54,241.2,1250.16,248.95,1250.08,256.32Z"/><path class="cls-7" d="M1265.13,258.46l6-4.51a178.74,178.74,0,0,1-4.8-27.58c-.56-6.09-.6-10.29-.6-12a104.8,104.8,0,0,1,1.2-17,102,102,0,0,1,4.2-17h-6q-.64,3-1.2,6A187.84,187.84,0,0,0,1265.13,258.46Z"/><path class="cls-7" d="M1281.87,257l-6.43-1.41q-.41-13-.54-26.39-.24-25.13.54-49h6.43c-.12,1.84-.3,4.63-.54,8-.58,8.42-.87,10.67-1.06,14.56-.22,4.55-.19,8.12,0,13.82C1280.67,232.8,1281.62,252,1281.87,257Z"/><path class="cls-8" d="M1293.28,257.38l-5.43-1.63a138.71,138.71,0,0,1-1.09-19.55c.28-17.47,3.77-25.41,2.17-40.74a83.9,83.9,0,0,0-2.72-14.12h7.06a94.86,94.86,0,0,1,2.17,13.58c1.38,16-2,24.35-2.72,42.37A158.63,158.63,0,0,0,1293.28,257.38Z"/><line class="cls-13" x1="1274.54" y1="36.31" x2="1274.54" y2="1"/><polygon class="cls-13" points="1274.27 35.76 1253.9 72.43 1294.64 72.43 1274.27 35.76"/><path class="cls-10" d="M1252.54,161.24V181h42.37V161.24Zm40.63,17.39h-38.89v-2.29h38.89Zm0-4.06h-38.89v-2.29h38.89Zm0-4.06h-38.89v-2.29h38.89Zm0-4.06h-38.89v-2.29h38.89Z"/><path class="cls-10" d="M1253.09,72.16V91.89h42.37V72.16Zm40.63,17.39h-38.89V87.26h38.89Zm0-4.06h-38.89V83.2h38.89Zm0-4.06h-38.89V79.14h38.89Zm0-4.06h-38.89V75.07h38.89Z"/></g><g id="lantern_right" data-name="lantern right"><polygon class="cls-14" points="1096.15 104.81 1050.36 104.81 1027.46 144.47 1050.36 184.14 1096.15 184.14 1119.06 144.47 1096.15 104.81"/><path class="cls-15" d="M1073.27,143.85,1050.63,182l-22.42-38.11,22.42-38.11Z"/><path class="cls-4" d="M1061.49,125.26l-10.86,18.28-10.75-18.28L1050.63,107Z"/><path class="cls-4" d="M1061.49,162.44l-10.86,18.28-10.75-18.28,10.75-18.28Z"/><path class="cls-15" d="M1118.51,144.47l-22.63,38.11-22.42-38.11,22.42-38.11Z"/><path class="cls-4" d="M1106.73,125.88l-10.86,18.28-10.75-18.28,10.75-18.28Z"/><path class="cls-4" d="M1106.73,163.06l-10.86,18.28-10.75-18.28,10.75-18.28Z"/><path class="cls-3" d="M1048.09,135.74l.06,4.08,2.48,4.34,2.48-4.34v-4.34l-2.48-27.89Z"/><path class="cls-3" d="M1048.09,152l.06-4.08,2.48-4.34,2.48,4.34v4.34l-2.48,27.89Z"/><path class="cls-16" d="M1046.64,144.78l2,0,2.11-1.07-2.11-1.07h-2.11c-4.52.36-12.44.56-17,.93C1034.12,143.9,1042.09,144.42,1046.64,144.78Z"/><path class="cls-16" d="M1054.83,144.77l-2,0-2.11-1.07,2.11-1.07h2.11c4.52.35,11.62.59,16.14.94C1066.53,143.91,1059.38,144.4,1054.83,144.77Z"/><path class="cls-16" d="M1091.89,145.4l2,0,2.11-1.07-2.11-1.07h-2.11c-4.52.36-12.44.56-17,.93C1079.36,144.52,1087.33,145,1091.89,145.4Z"/><path class="cls-16" d="M1100.07,145.39l-2,0L1096,144.3l2.11-1.07h2.11c4.52.35,11.62.59,16.14.94C1111.77,144.53,1104.62,145,1100.07,145.39Z"/><path class="cls-6" d="M1043.49,293.55,1037,296a601.52,601.52,0,0,1,10.2-82.32q.68-3.48,1.39-6.93h7.88a323.2,323.2,0,0,0-11.59,60.31C1044,276.3,1043.58,285.14,1043.49,293.55Z"/><path class="cls-6" d="M1060.66,296l6.84-5.15a203.94,203.94,0,0,1-5.47-31.46c-.64-7-.68-11.74-.68-13.73a119.58,119.58,0,0,1,1.37-19.45,116.42,116.42,0,0,1,4.79-19.45h-6.84q-.74,3.39-1.37,6.86A214.32,214.32,0,0,0,1060.66,296Z"/><path class="cls-6" d="M1079.76,294.39l-7.34-1.61q-.46-14.84-.61-30.11-.27-28.67.61-55.91h7.34c-.14,2.1-.35,5.28-.61,9.14-.66,9.6-1,12.17-1.21,16.61-.26,5.19-.21,9.26,0,15.77C1078.39,266.72,1079.47,288.66,1079.76,294.39Z"/><path class="cls-6" d="M1092.78,292.9l-6.2-1.86a158.27,158.27,0,0,1-1.24-22.31c.32-19.93,4.31-29,2.48-46.48a95.72,95.72,0,0,0-3.1-16.11h8.06a108.23,108.23,0,0,1,2.48,15.49c1.58,18.3-2.34,27.79-3.1,48.34A181,181,0,0,0,1092.78,292.9Z"/><path class="cls-3" d="M1093.33,136.36l.06,4.08,2.48,4.34,2.48-4.34v-4.34l-2.48-27.89Z"/><path class="cls-3" d="M1093.33,152.58l.06-4.08,2.48-4.34,2.48,4.34v4.34l-2.48,27.89Z"/><path class="cls-7" d="M1046,292.32l-6.49,2.45a601.52,601.52,0,0,1,10.2-82.32q.68-3.48,1.39-6.93H1059a323.2,323.2,0,0,0-11.59,60.31C1046.49,275.06,1046.06,283.91,1046,292.32Z"/><path class="cls-7" d="M1063.13,294.76l6.84-5.15a203.94,203.94,0,0,1-5.47-31.46c-.64-7-.68-11.74-.68-13.73a119.58,119.58,0,0,1,1.37-19.45,116.42,116.42,0,0,1,4.79-19.45h-6.84q-.74,3.39-1.37,6.86A214.32,214.32,0,0,0,1063.13,294.76Z"/><path class="cls-7" d="M1082.24,293.15l-7.34-1.61q-.46-14.84-.61-30.11-.27-28.67.61-55.91h7.34c-.14,2.1-.35,5.28-.61,9.14-.66,9.6-1,12.17-1.21,16.61-.26,5.19-.21,9.26,0,15.77C1080.87,265.48,1082,287.42,1082.24,293.15Z"/><path class="cls-8" d="M1095.26,293.52l-6.2-1.86a158.27,158.27,0,0,1-1.24-22.31c.32-19.93,4.31-29,2.48-46.48a95.72,95.72,0,0,0-3.1-16.11h8.06a108.23,108.23,0,0,1,2.48,15.49c1.58,18.3-2.34,27.79-3.1,48.34A181,181,0,0,0,1095.26,293.52Z"/><line class="cls-17" x1="1073.88" y1="41.28" x2="1073.88" y2="1"/><polygon class="cls-17" points="1073.57 40.66 1050.33 82.5 1096.81 82.5 1073.57 40.66"/><path class="cls-10" d="M1048.78,183.83v22.51h48.34V183.83Zm46.35,19.85h-44.37v-2.61h44.37Zm0-4.64h-44.37v-2.61h44.37Zm0-4.64h-44.37v-2.61h44.37Zm0-4.64h-44.37v-2.61h44.37Z"/><path class="cls-10" d="M1049.4,82.19V104.7h48.34V82.19ZM1095.75,102h-44.37V99.42h44.37Zm0-4.64h-44.37V94.79h44.37Zm0-4.64h-44.37V90.15h44.37Zm0-4.64h-44.37V85.52h44.37Z"/></g><g id="lantern_right-2" data-name="lantern right"><polygon class="cls-18" points="57.35 84.45 20.09 84.45 1.46 116.72 20.09 148.99 57.35 148.99 75.98 116.72 57.35 84.45"/><path class="cls-19" d="M38.72,116.22l-18.41,31-18.24-31,18.24-31Z"/><path class="cls-4" d="M29.14,101.09,20.31,116l-8.75-14.87,8.75-14.87Z"/><path class="cls-4" d="M29.14,131.34l-8.83,14.87-8.75-14.87,8.75-14.87Z"/><path class="cls-19" d="M75.53,116.72l-18.41,31-18.24-31,18.24-31Z"/><path class="cls-4" d="M66,101.6l-8.83,14.87L48.37,101.6l8.75-14.87Z"/><path class="cls-4" d="M66,131.85l-8.83,14.87-8.75-14.87L57.12,117Z"/><path class="cls-3" d="M18.24,109.62l.05,3.32,2,3.53,2-3.53v-3.53l-2-22.69Z"/><path class="cls-3" d="M18.24,122.82l.05-3.32,2-3.53,2,3.53V123l-2,22.69Z"/><path class="cls-16" d="M17.07,117l1.61,0,1.71-.87-1.72-.87H17c-3.67.29-10.12.46-13.79.75C6.88,116.26,13.36,116.68,17.07,117Z"/><path class="cls-16" d="M23.72,117l-1.61,0-1.72-.87,1.71-.87h1.71c3.67.29,9.46.48,13.13.76C33.24,116.27,27.43,116.66,23.72,117Z"/><path class="cls-16" d="M53.87,117.48l1.61,0,1.71-.87-1.72-.87H53.77c-3.67.29-10.12.46-13.79.75C43.68,116.76,50.17,117.19,53.87,117.48Z"/><path class="cls-16" d="M60.53,117.47l-1.61,0-1.72-.87,1.71-.87h1.71c3.67.29,9.46.48,13.13.76C70.05,116.77,64.24,117.17,60.53,117.47Z"/><path class="cls-6" d="M14.5,238l-5.28,2a489.37,489.37,0,0,1,8.3-67q.55-2.83,1.13-5.64h6.41a262.94,262.94,0,0,0-9.43,49.07C14.92,224,14.58,231.17,14.5,238Z"/><path class="cls-6" d="M28.47,240,34,235.81a165.92,165.92,0,0,1-4.45-25.6c-.52-5.65-.56-9.55-.56-11.17a97.28,97.28,0,0,1,1.11-15.82A94.72,94.72,0,0,1,34,167.39H28.47q-.6,2.76-1.11,5.59A174.37,174.37,0,0,0,28.47,240Z"/><path class="cls-6" d="M44,238.69l-6-1.31q-.38-12.07-.5-24.49-.22-23.33.5-45.49h6c-.11,1.71-.28,4.3-.5,7.44-.54,7.81-.8,9.9-1,13.51-.21,4.22-.17,7.53,0,12.83C42.89,216.18,43.78,234,44,238.69Z"/><path class="cls-6" d="M54.6,237.48l-5-1.51a128.76,128.76,0,0,1-1-18.15c.26-16.21,3.5-23.58,2-37.82A77.88,77.88,0,0,0,48,166.89H54.6a88.05,88.05,0,0,1,2,12.61c1.28,14.88-1.9,22.61-2.52,39.33A147.25,147.25,0,0,0,54.6,237.48Z"/><path class="cls-3" d="M55.05,110.12l.05,3.32,2,3.53,2-3.53v-3.53l-2-22.69Z"/><path class="cls-3" d="M55.05,123.32,55.1,120l2-3.53,2,3.53v3.53l-2,22.69Z"/><path class="cls-7" d="M16.52,237l-5.28,2a489.37,489.37,0,0,1,8.3-67q.55-2.83,1.13-5.64h6.41a262.94,262.94,0,0,0-9.43,49.07C16.94,223,16.59,230.16,16.52,237Z"/><path class="cls-7" d="M30.48,239,36,234.8a165.92,165.92,0,0,1-4.45-25.6c-.52-5.65-.56-9.55-.56-11.17a97.28,97.28,0,0,1,1.11-15.82A94.72,94.72,0,0,1,36,166.39H30.48q-.6,2.76-1.11,5.59A174.37,174.37,0,0,0,30.48,239Z"/><path class="cls-7" d="M46,237.68l-6-1.31q-.38-12.07-.5-24.49-.22-23.33.5-45.49h6c-.11,1.71-.28,4.3-.5,7.44-.54,7.81-.8,9.9-1,13.51-.21,4.22-.17,7.53,0,12.83C44.91,215.17,45.79,233,46,237.68Z"/><path class="cls-8" d="M56.62,238l-5-1.51a128.76,128.76,0,0,1-1-18.15c.26-16.21,3.5-23.58,2-37.82a77.88,77.88,0,0,0-2.52-13.11h6.55a88.05,88.05,0,0,1,2,12.61c1.28,14.88-1.9,22.61-2.52,39.33A147.25,147.25,0,0,0,56.62,238Z"/><line class="cls-20" x1="39.22" y1="32.77" x2="39.22"/><polygon class="cls-20" points="38.97 32.27 20.06 66.3 57.88 66.3 38.97 32.27"/><path class="cls-10" d="M18.8,148.74v18.32H58.13V148.74Zm37.71,16.15H20.42v-2.12h36.1Zm0-3.77H20.42V159h36.1Zm0-3.77H20.42v-2.12h36.1Zm0-3.77H20.42v-2.12h36.1Z"/><path class="cls-10" d="M19.3,66.05V84.37H58.63V66.05ZM57,82.2H20.92V80.07H57Zm0-3.77H20.92V76.3H57Zm0-3.77H20.92V72.53H57Zm0-3.77H20.92V68.76H57Z"/></g></g></g></svg>