<svg xmlns="http://www.w3.org/2000/svg" viewBox="0 0 1329.46 416.28"><defs><style>.cls-1{fill:#fbb03b;}</style></defs><title>stars</title><g id="Layer_2" data-name="Layer 2"><g id="stars"><polygon class="cls-1" points="81.46 178.5 94.14 177.09 95.55 163 96.96 177.09 109.64 178.5 96.96 179.91 95.55 194 94.14 179.91 81.46 178.5"/><polygon class="cls-1" points="576.46 185.5 589.14 184.09 590.55 170 591.96 184.09 604.64 185.5 591.96 186.91 590.55 201 589.14 186.91 576.46 185.5"/><polygon class="cls-1" points="348.46 149.5 361.14 148.09 362.55 134 363.96 148.09 376.64 149.5 363.96 150.91 362.55 165 361.14 150.91 348.46 149.5"/><polygon class="cls-1" points="271.46 19 280.46 18 281.46 8 282.46 18 291.46 19 282.46 20 281.46 30 280.46 20 271.46 19"/><polygon class="cls-1" points="888.46 275 897.46 274 898.46 264 899.46 274 908.46 275 899.46 276 898.46 286 897.46 276 888.46 275"/><polygon class="cls-1" points="972.46 139 981.46 138 982.46 128 983.46 138 992.46 139 983.46 140 982.46 150 981.46 140 972.46 139"/><polygon class="cls-1" points="1159.46 71.5 1172.14 70.09 1173.55 56 1174.96 70.09 1187.64 71.5 1174.96 72.91 1173.55 87 1172.14 72.91 1159.46 71.5"/><circle class="cls-1" cx="123.96" cy="18.5" r="4.5"/><circle class="cls-1" cx="1270.96" cy="396.5" r="4.5"/><circle class="cls-1" cx="1326.46" cy="3" r="3" transform="translate(0.2 26.43) rotate(-1.14)"/><circle class="cls-1" cx="24.96" cy="265.32" r="2.96" transform="translate(-180.3 95.36) rotate(-45)"/><circle class="cls-1" cx="2.96" cy="401.32" r="2.96" transform="translate(-282.91 119.63) rotate(-45)"/><circle class="cls-1" cx="227.96" cy="413.32" r="2.96" transform="translate(-225.49 282.25) rotate(-45)"/><circle class="cls-1" cx="1223.96" cy="168.32" r="2.96" transform="translate(239.47 914.77) rotate(-45)"/><circle class="cls-1" cx="379.96" cy="326.32" r="2.96" transform="translate(-119.45 364.25) rotate(-45)"/><circle class="cls-1" cx="748.96" cy="175.32" r="2.96" transform="translate(95.4 580.94) rotate(-45)"/></g></g></svg>